HIERARCHY
ROOT Hips
{
  OFFSET 267.745 86.9975 -272.335
  CHANNELS 6 Xposition Yposition Zposition Zrotation Xrotation Yrotation
  JOINT LeftUpLeg
  {
    OFFSET 8.64259 1.95398 -2.38835
    CHANNELS 3 Zrotation Xrotation Yrotation
    JOINT LeftLeg
    {
      OFFSET 43.7702 0 0
      CHANNELS 3 Zrotation Xrotation Yrotation
      JOINT LeftFoot
      {
        OFFSET 40.6238 0 0
        CHANNELS 3 Zrotation Xrotation Yrotation
        JOINT LeftToeBase
        {
          OFFSET 12.7242 0 0
          CHANNELS 3 Zrotation Xrotation Yrotation
          End Site
          {
            OFFSET 0 0 0
          }
        }
      }
    }
  }
  JOINT RightUpLeg
  {
    OFFSET -8.2249 1.95398 -2.59336
    CHANNELS 3 Zrotation Xrotation Yrotation
    JOINT RightLeg
    {
      OFFSET 43.5653 0 0
      CHANNELS 3 Zrotation Xrotation Yrotation
      JOINT RightFoot
      {
        OFFSET 40.6238 0 0
        CHANNELS 3 Zrotation Xrotation Yrotation
        JOINT RightToeBase
        {
          OFFSET 12.7242 0 0
          CHANNELS 3 Zrotation Xrotation Yrotation
          End Site
          {
            OFFSET 0 0 0
          }
        }
      }
    }
  }
  JOINT Spine
  {
    OFFSET 0.165834 0.87714 6.61349
    CHANNELS 3 Zrotation Xrotation Yrotation
    JOINT Spine1
    {
      OFFSET 7.38963 1.71661e-005 0
      CHANNELS 3 Zrotation Xrotation Yrotation
      JOINT Spine2
      {
        OFFSET 11.9445 1.14441e-005 0
        CHANNELS 3 Zrotation Xrotation Yrotation
        JOINT Spine3
        {
          OFFSET 14.7254 4.19617e-005 0
          CHANNELS 3 Zrotation Xrotation Yrotation
          JOINT Spine4
          {
            OFFSET 10.9679 0 0
            CHANNELS 3 Zrotation Xrotation Yrotation
            JOINT RightShoulder
            {
              OFFSET 2.46616 -1.6653 3.69651
              CHANNELS 3 Zrotation Xrotation Yrotation
              JOINT RightArm
              {
                OFFSET 13.0012 0 0
                CHANNELS 3 Zrotation Xrotation Yrotation
                JOINT RightForeArm
                {
                  OFFSET 28.7848 1.52588e-005 0
                  CHANNELS 3 Zrotation Xrotation Yrotation
                  JOINT RightHand
                  {
                    OFFSET 26.5688 1.52588e-005 0
                    CHANNELS 3 Zrotation Xrotation Yrotation
                    End Site
                    {
                      OFFSET 0 0 0
                    }
                  }
                }
              }
            }
            JOINT LeftShoulder
            {
              OFFSET 2.38034 -1.29275 -3.7523
              CHANNELS 3 Zrotation Xrotation Yrotation
              JOINT LeftArm
              {
                OFFSET 16.3182 6.10352e-005 0
                CHANNELS 3 Zrotation Xrotation Yrotation
                JOINT LeftForeArm
                {
                  OFFSET 27.0901 0 0
                  CHANNELS 3 Zrotation Xrotation Yrotation
                  JOINT LeftHand
                  {
                    OFFSET 24.5451 1.52588e-005 0
                    CHANNELS 3 Zrotation Xrotation Yrotation
                    End Site
                    {
                      OFFSET 0 0 0
                    }
                  }
                }
              }
            }
            JOINT Neck
            {
              OFFSET 5.0226 -0.0266342 0
              CHANNELS 3 Zrotation Xrotation Yrotation
              JOINT Head
              {
                OFFSET 6.69364 2.86102e-005 0
                CHANNELS 3 Zrotation Xrotation Yrotation
                End Site
                {
                  OFFSET 0 0 0
                }
              }
            }
          }
        }
      }
    }
  }
}
MOTION
Frames:	17
Frame Time:	0.0416667
277.824 64.9471 266.209 -97.5803 49.5269 -70.5751 -103.976 -9.74633 162.948 -119.945 -24.2618 -103.152 87.9576 4.77941 -40.3016 132.68 57.0029 69.9739 140.934 -21.426 21.9333 -161.825 -3.41988 79.2287 170.412 -36.3856 100.649 128.214 32.4232 62.3217 10.733 11.0671 -94.7019 5.44298 19.4938 -9.66397 -6.11959 19.0514 -10.5325 -29.8359 21.4591 -3.11903 -9.8232 21.4591 -3.11903 114.448 -14.1428 -48.9775 85.8535 42.0951 12.7012 -8.53193 9.9783 -150.162 -7.05684 4.00101 -69.1328 79.8434 -54.7078 -98.6415 -108.242 -14.4008 -3.37958 -134.709 46.834 179.915 17.5725 2.17289 8.45027 -89.0149 -25.7641 89.7255 -8.03942 77.9162 78.3145 
278.318 64.8361 266.661 -97.4831 49.5405 -70.3288 -103.597 -8.75364 163.423 -87.6737 -25.8804 -88.8348 90.0299 8.34256 -11.5605 131.024 56.957 71.3325 141.608 -22.7126 21.6614 -159.96 -3.64005 79.6954 171.76 -39.4201 103.379 127.735 32.4472 62.6187 10.7612 11.0375 -94.7073 5.50832 19.5451 -9.6936 -6.05369 19.1014 -10.5645 -29.7764 21.5166 -3.12994 -9.76377 21.5166 -3.12992 114.57 -14.4178 -48.8518 86.0243 41.6653 12.3718 -8.3334 9.7798 -150.204 -7.08366 3.98601 -68.7235 79.7545 -54.7777 -98.7167 -108.304 -14.4542 -3.23327 -135.201 48.198 179.913 16.3821 2.13276 9.03471 -89.065 -25.7516 89.9305 -6.95176 78.3628 77.1194 
279.77 64.5195 267.992 -97.205 49.5768 -69.6102 -102.45 -5.83403 164.613 33.5055 12.5382 -72.11 85.2749 -4.55401 110.033 126.341 56.678 75.1344 143.694 -26.5116 21.2494 -154.123 -4.11046 81.2548 175.222 -47.6216 111.279 126.481 32.4642 63.3595 10.8415 10.951 -94.7222 5.69942 19.6915 -9.77867 -5.86097 19.244 -10.6564 -29.6022 21.6809 -3.16146 -9.5896 21.6809 -3.16146 114.928 -15.2238 -48.4888 86.4845 40.4082 11.4461 -7.84322 9.34177 -150.309 -7.22288 3.98135 -67.5711 79.5051 -54.9894 -98.9309 -108.484 -14.5978 -2.82054 -136.628 51.7139 179.906 12.7433 1.93734 10.8169 -89.1772 -25.7012 90.5257 -3.40896 79.5751 73.2998 
282.163 64.0295 270.193 -96.7683 49.6267 -68.4469 -100.449 -1.06421 165.906 24.8282 6.79945 -76.012 78.4162 0.948618 98.4483 119.276 55.8188 80.7245 147.574 -32.729 21.8795 -143.989 -4.04605 84.2156 178.631 -59.459 122.603 124.827 32.4139 64.2837 10.9665 10.8102 -94.7432 6.01047 19.9193 -9.91198 -5.5474 19.4658 -10.8003 -29.3179 21.9368 -3.21124 -9.30523 21.9368 -3.21123 115.518 -16.5405 -47.9114 87.1224 38.3603 10.0437 -7.27101 8.98546 -150.438 -7.60272 4.0688 -65.8335 79.1299 -55.3539 -99.2632 -108.778 -14.7986 -2.18946 -138.881 56.1528 179.898 6.53149 1.33248 13.7249 -89.2548 -25.5875 91.4852 3.75903 81.2586 65.7925 
285.517 63.4173 273.283 -96.195 49.6788 -66.8661 -97.4228 5.37234 166.354 23.4074 3.35978 -82.7056 70.6897 6.15983 94.7431 110.767 54.0053 87.1229 154.355 -41.0483 25.6793 -127.883 -1.86981 88.3531 171.225 -76.6203 125.893 123.029 32.4105 65.3684 11.1271 10.617 -94.7656 6.43676 20.2118 -10.0846 -5.11785 19.7505 -10.9864 -28.9264 22.2658 -3.27621 -8.91372 22.2658 -3.27618 116.337 -18.3567 -47.1432 87.8021 35.5502 8.29853 -6.78866 8.97084 -150.566 -8.33083 4.30556 -63.7022 78.6715 -55.8896 -99.689 -109.188 -15.0158 -1.39575 -141.755 60.422 179.892 -2.01117 -0.0215484 17.2548 -89.1654 -25.3847 92.7922 17.009 82.9691 52.255 
289.868 62.7678 277.29 -95.5047 49.7202 -64.9009 -93.0813 12.9138 164.643 4.30916 0.00984656 -89.9402 65.5539 27.0069 83.7281 101.882 51.0127 93.1979 174.596 -37.5343 48.75 -79.1983 4.59113 64.1998 26.8854 -29.5856 -10.3725 121.042 32.8017 67.0316 11.3126 10.3737 -94.7839 6.97275 20.5499 -10.2859 -4.57804 20.0795 -11.2035 -28.4313 22.6465 -3.35252 -8.41868 22.6465 -3.35251 117.393 -20.6639 -46.2076 88.3824 32.0121 6.33865 -6.48572 9.41658 -150.677 -9.45813 4.70581 -61.3665 78.1759 -56.6147 -100.182 -109.714 -15.2049 -0.498224 -144.966 64.0797 179.887 -12.056 -2.24203 20.6221 -88.7728 -25.0683 94.4431 39.0453 84.0712 30.0567 
295.222 62.2122 282.225 -94.7135 49.7385 -62.5971 -88.064 21.2922 159.485 -59.8867 7.08267 -92.5525 106.754 38.3156 -1.8417 93.5283 46.8613 97.9712 -173.442 -22.0431 87.1735 -75.2221 16.7727 5.80799 27.9766 29.4905 18.3719 118.911 34.176 69.9383 11.5114 10.0837 -94.7925 7.61035 20.9123 -10.504 -3.93627 20.4321 -11.4385 -27.8385 23.0552 -3.43604 -7.82584 23.0551 -3.43606 118.689 -23.446 -45.1269 88.7336 27.8021 4.27453 -6.39486 10.3365 -150.755 -10.9896 5.25631 -58.9967 77.6901 -57.5422 -100.712 -110.361 -15.3213 0.44339 -148.23 67.2604 179.883 -22.3418 -5.05111 23.2754 -87.9636 -24.6118 96.449 65.7839 83.9131 3.30005 
301.581 61.8397 288.151 -93.8341 49.7239 -60.0195 -83.7525 33.1895 149.964 -61.0001 16.0653 -88.5091 122.172 49.656 -5.07941 86.2438 41.8231 100.857 -153.932 -33.0725 119.807 -50.289 36.6137 -13.5977 16.6569 63.9673 19.7235 119.466 36.685 72.3135 11.711 9.75182 -94.7872 8.3384 21.2758 -10.7278 -3.204 20.7855 -11.6793 -27.1562 23.4665 -3.52405 -7.14359 23.4665 -3.52407 120.226 -26.6628 -43.9199 88.7502 23.0154 2.19575 -6.52048 11.6835 -150.78 -12.8979 5.93191 -56.7366 77.2571 -58.6722 -101.252 -111.125 -15.327 1.37275 -151.342 70.2983 179.878 -31.608 -7.97156 25.2183 -86.6796 -23.9807 98.8152 86.4962 82.4955 -17.3167 
309.142 61.5188 295.282 -92.8759 49.6707 -57.2481 -74.3671 44.4436 131.685 -72.7298 21.2039 -77.4346 144.932 51.9983 -18.7874 80.147 36.3331 101.762 -106.835 -41.5906 171.098 -19.5712 -21.1232 -44.8008 167.293 15.6174 178.417 127.339 37.9103 68.2615 11.9005 9.38293 -94.7674 9.14533 21.6187 -10.9529 -2.39317 21.1185 -11.9204 -26.3931 23.8586 -3.61989 -6.3805 23.8586 -3.61991 121.993 -30.2302 -42.5994 88.3651 17.7948 0.174247 -6.85633 13.3832 -150.721 -15.1361 6.7091 -54.6928 76.9046 -59.9813 -101.775 -111.988 -15.206 2.24794 -154.202 73.4019 179.869 -39.1024 -10.6731 26.81 -84.9602 -23.1309 101.491 98.9134 80.3387 -29.5879 
317.833 61.3347 303.483 -91.8473 49.5773 -54.3687 -57.8893 49.1013 103.042 -79.4019 19.6629 -66.5662 164.49 54.003 -28.3453 75.0498 30.8205 101.003 -91.4853 -15.0729 164.273 -2.9726 -34.5749 -5.23285 136.182 -39.9845 167.182 136.844 36.0245 60.812 12.0733 8.98018 -94.7394 10.0243 21.9249 -11.1882 -1.51096 21.4141 -12.1699 -25.5533 24.219 -3.73815 -5.54062 24.219 -3.73813 123.967 -34.0044 -41.168 87.5651 12.327 -1.72866 -7.39585 15.3597 -150.543 -17.6477 7.57181 -52.9359 76.6346 -61.4159 -102.27 -112.907 -14.9796 3.05113 -156.776 76.6128 179.854 -44.6696 -13.0476 28.3571 -82.9704 -22.0236 104.316 106.029 77.8562 -36.5798 
327.088 61.5413 312.216 -90.7582 49.4472 -51.4668 -44.0366 45.1605 74.3851 -77.835 12.7539 -57.8576 177.872 57.1638 -34.9874 70.6584 25.5936 99.0938 -83.3323 14.7974 165.613 -1.64393 -43.1149 -2.3306 65.6696 -53.807 88.4532 143.093 33.0796 55.1794 12.2284 8.54324 -94.7163 10.9777 22.1857 -11.4602 -0.555597 21.663 -12.4536 -24.6322 24.5474 -3.90733 -4.61956 24.5474 -3.90731 126.101 -37.7722 -39.6141 86.4033 6.83204 -3.45121 -8.13571 17.5453 -150.208 -20.371 8.51111 -51.5086 76.4173 -62.8909 -102.74 -113.814 -14.7183 3.79336 -159.054 79.9092 179.827 -48.5199 -15.0902 29.9841 -81.0038 -20.6614 106.997 110.155 75.3349 -40.6697 
336.423 62.1448 321.027 -89.6231 49.2879 -48.6225 -40.25 37.316 53.3672 -66.6692 3.80962 -49.6291 -175.764 63.1738 -40.1563 66.7025 20.8213 96.5585 -77.0207 38.5809 163.599 -0.197407 -42.5192 -0.105873 37.6964 -33.4196 54.9719 146.513 30.643 51.7797 12.3702 8.06954 -94.714 12.0132 22.4009 -11.8018 0.480397 21.8633 -12.8044 -23.6208 24.8533 -4.15975 -3.60811 24.8533 -4.15976 128.345 -41.2982 -37.9127 84.9905 1.52505 -4.9409 -9.07523 19.8779 -149.674 -23.2423 9.52494 -50.4316 76.2014 -64.3132 -103.206 -114.629 -14.5272 4.50633 -161.025 83.264 179.765 -51.0156 -16.8221 31.6835 -79.3984 -19.1043 109.181 112.532 73.0153 -43.1402 
345.638 62.9952 329.708 -88.4606 49.109 -45.9015 -45.3885 29.584 37.1936 -45.5761 -5.44932 -36.3662 179.781 71.4431 -40.6823 62.9837 16.5492 93.8153 -68.2069 58.8829 157.666 -0.175791 -32.8162 -0.0779813 31.29 -20.3916 45.758 148.386 28.9351 49.766 12.5017 7.56119 -94.7379 13.1268 22.572 -12.2223 1.59272 22.0162 -13.2313 -22.5225 25.1412 -4.50404 -2.50986 25.1412 -4.50404 130.673 -44.45 -36.0386 83.4368 -3.45128 -6.19253 -10.214 22.283 -148.896 -26.203 10.6175 -49.7081 75.9557 -65.6336 -103.68 -115.31 -14.4715 5.20455 -162.597 86.6354 179.559 -52.5182 -18.2683 33.3935 -78.3217 -17.4139 110.702 113.862 71.0193 -44.7121 
354.662 63.9561 338.182 -87.2923 48.9208 -43.3503 -62.6076 22.2164 19.7568 -2.4817 -10.8241 -2.62768 120.859 76.4863 2.27353 59.3713 12.7343 91.1584 -52.3681 72.6143 143.321 -0.141543 -22.4506 -0.0237415 28.6452 -14.3015 42.3818 149.583 27.6499 48.3953 11.0481 8.64579 -92.8998 10.3392 20.6942 -7.55373 -1.18748 20.3421 -8.48875 -25.1142 21.9636 -0.684073 -5.10152 21.9636 -0.684096 138.213 -65.119 -36.2124 72.2084 -14.8831 -12.6815 -10.7242 19.0583 -147.591 -29.5435 11.8873 -49.1428 82.1846 -72.1484 -99.8127 -121.934 -0.178046 -0.815881 -163.977 81.6025 179.832 -52.5884 -19.4576 35.6585 134.347 14.7285 34.9174 55.7666 -56.33 135.22 
363.414 64.9442 346.369 -86.142 48.7331 -40.9995 -65.5613 24.9007 14.4 -0.458147 -12.7723 -0.397766 145.26 77.0392 -20.5606 55.7736 9.29082 88.7713 -18.2834 79.868 110.001 -0.0914606 -13.12 0.0159341 27.0844 -11.9688 41.172 150.484 26.5535 47.3044 11.0184 8.28512 -93.0219 11.136 20.5426 -7.99403 -0.396098 20.1716 -8.91998 -24.2964 21.9514 -1.15803 -4.28372 21.9514 -1.15804 140.988 -67.4366 -33.866 69.9325 -18.7301 -12.9736 -12.0107 20.6461 -146.373 -32.61 13.1693 -49.0393 82.061 -72.5506 -99.9927 -122.501 0.831374 -0.7047 -165.103 84.7559 179.741 -52.9277 -20.3949 37.1747 141.386 0.111873 33.5276 42.6604 -45.1835 118.815 
371.783 65.9107 354.161 -85.0341 48.5536 -38.8652 -67.0905 28.5889 10.9588 -1.02918 -15.9058 -0.858398 171.147 75.7203 -43.9147 52.1146 6.117 86.7409 25.7973 80.2621 66.2813 -0.121494 -5.22052 0.0281318 26.0458 -11.531 40.8828 151.232 25.5448 46.3545 10.8762 8.03865 -93.0153 11.6385 20.2373 -8.0921 0.100483 19.8623 -9.00264 -23.754 21.6916 -1.35726 -3.74137 21.6916 -1.35726 144.748 -70.718 -31.0448 66.9621 -22.6929 -13.5566 -13.3515 21.6524 -144.861 -35.6681 14.5644 -49.23 82.3945 -73.2699 -99.8317 -123.322 2.70377 -1.0168 -165.896 87.1009 179.543 -52.9067 -21.1339 38.6006 142.565 -5.87914 31.6137 42.814 -41.8241 116.13 
379.649 66.8229 361.445 -83.992 48.3879 -36.9511 -68.3693 32.7236 8.20399 -1.27206 -19.28 -1.03989 -171.125 72.5876 -59.5103 48.3299 3.1184 85.1309 49.3048 77.5145 42.8938 -0.119795 1.29993 0.0416367 25.2826 -12.0268 40.9853 151.873 24.5991 45.5031 10.7303 7.81978 -93.0178 12.0818 19.9224 -8.18753 0.537881 19.5437 -9.08225 -23.2701 21.422 -1.55686 -3.25749 21.422 -1.55684 149.594 -73.693 -27.0401 64.0177 -26.2992 -14.0281 -14.7627 22.3902 -143.076 -38.6563 16.077 -49.7168 82.6713 -73.9218 -99.7046 -124.095 4.51449 -1.34267 -165.451 89.2371 178.285 -52.7016 -21.7054 39.8684 143.271 -11.9523 29.9664 43.2421 -38.657 113.293 
